<?xml version="1.0" encoding="utf-8"?>
<!-- Generator: Adobe Illustrator 16.0.0, SVG Export Plug-In . SVG Version: 6.00 Build 0)  -->
<!DOCTYPE svg PUBLIC "-//W3C//DTD SVG 1.1//EN" "http://www.w3.org/Graphics/SVG/1.1/DTD/svg11.dtd">
<svg version="1.1" id="Layer_1" xmlns="http://www.w3.org/2000/svg" xmlns:xlink="http://www.w3.org/1999/xlink" x="0px" y="0px"
	 width="1007px" height="236px" viewBox="0 0 1007 236" enable-background="new 0 0 1007 236" xml:space="preserve">
<g>
	<defs>
		<rect id="SVGID_1_" x="-85" y="-315" width="1290" height="810"/>
	</defs>
	<clipPath id="SVGID_2_">
		<use xlink:href="#SVGID_1_"  overflow="visible"/>
	</clipPath>
	<path clip-path="url(#SVGID_2_)" d="M260.88,54.464c0.532,0.513,0.798,1.15,0.798,1.909v34.485c0,0.76-0.256,1.406-0.77,1.938
		c-0.513,0.532-1.188,0.798-2.023,0.798c-0.837,0-1.521-0.257-2.052-0.77c-0.533-0.513-0.798-1.169-0.798-1.966V64.467
		l-11.058,16.758c-0.266,0.342-0.598,0.627-0.998,0.856c-0.399,0.227-0.807,0.323-1.225,0.285c-0.38,0.038-0.77-0.058-1.169-0.285
		c-0.399-0.229-0.732-0.514-0.997-0.856l-11.115-17.271v26.904c0,0.797-0.238,1.454-0.713,1.966s-1.111,0.77-1.909,0.77
		c-0.761,0-1.378-0.257-1.853-0.77s-0.712-1.169-0.712-1.966V56.373c0-0.721,0.265-1.358,0.798-1.909
		c0.531-0.55,1.197-0.827,1.995-0.827c0.456,0,0.902,0.115,1.339,0.342c0.437,0.228,0.789,0.533,1.055,0.912l13.509,20.463
		l13.68-20.463c0.607-0.835,1.368-1.254,2.28-1.254C259.701,53.675,260.347,53.951,260.88,54.464"/>
	<path clip-path="url(#SVGID_2_)" fill="none" stroke="#000000" stroke-miterlimit="10" d="M260.88,54.464
		c0.532,0.513,0.798,1.15,0.798,1.909v34.485c0,0.76-0.256,1.406-0.77,1.938c-0.513,0.532-1.188,0.798-2.023,0.798
		c-0.837,0-1.521-0.257-2.052-0.77c-0.533-0.513-0.798-1.169-0.798-1.966V64.467l-11.058,16.758
		c-0.266,0.342-0.598,0.627-0.998,0.856c-0.399,0.227-0.807,0.323-1.225,0.285c-0.38,0.038-0.77-0.058-1.169-0.285
		c-0.399-0.229-0.732-0.514-0.997-0.856l-11.115-17.271v26.904c0,0.797-0.238,1.454-0.713,1.966s-1.111,0.77-1.909,0.77
		c-0.761,0-1.378-0.257-1.853-0.77s-0.712-1.169-0.712-1.966V56.373c0-0.721,0.265-1.358,0.798-1.909
		c0.531-0.55,1.197-0.827,1.995-0.827c0.456,0,0.902,0.115,1.339,0.342c0.437,0.228,0.789,0.533,1.055,0.912l13.509,20.463
		l13.68-20.463c0.607-0.835,1.368-1.254,2.28-1.254C259.701,53.675,260.347,53.951,260.88,54.464z"/>
	<path clip-path="url(#SVGID_2_)" d="M316.056,91.143c0,0.761-0.257,1.388-0.77,1.881c-0.513,0.494-1.111,0.741-1.795,0.741
		c-0.533,0-1.017-0.162-1.454-0.484c-0.437-0.321-0.789-0.77-1.054-1.34l-3.534-8.378h-17.613l-3.477,8.436
		c-0.191,0.569-0.504,1.007-0.94,1.311c-0.438,0.304-0.922,0.456-1.454,0.456c-0.798,0-1.406-0.208-1.824-0.627
		c-0.419-0.418-0.627-0.987-0.627-1.71c0-0.151,0.037-0.455,0.114-0.911l14.535-35.226c0.265-0.608,0.636-1.074,1.111-1.397
		c0.475-0.322,1.017-0.446,1.625-0.37c0.57,0,1.083,0.152,1.539,0.456s0.778,0.741,0.969,1.311l14.478,34.77
		C315.999,90.401,316.056,90.765,316.056,91.143 M292.002,78.375h13.281l-6.669-15.96L292.002,78.375z"/>
	<path clip-path="url(#SVGID_2_)" fill="none" stroke="#000000" stroke-miterlimit="10" d="M316.056,91.143
		c0,0.761-0.257,1.388-0.77,1.881c-0.513,0.494-1.111,0.741-1.795,0.741c-0.533,0-1.017-0.162-1.454-0.484
		c-0.437-0.321-0.789-0.77-1.054-1.34l-3.534-8.378h-17.613l-3.477,8.436c-0.191,0.569-0.504,1.007-0.94,1.311
		c-0.438,0.304-0.922,0.456-1.454,0.456c-0.798,0-1.406-0.208-1.824-0.627c-0.419-0.418-0.627-0.987-0.627-1.71
		c0-0.151,0.037-0.455,0.114-0.911l14.535-35.226c0.265-0.608,0.636-1.074,1.111-1.397c0.475-0.322,1.017-0.446,1.625-0.37
		c0.57,0,1.083,0.152,1.539,0.456s0.778,0.741,0.969,1.311l14.478,34.77C315.999,90.401,316.056,90.765,316.056,91.143z
		 M292.002,78.375h13.281l-6.669-15.96L292.002,78.375z"/>
	<path clip-path="url(#SVGID_2_)" d="M367.184,90.032c0.228,0.4,0.343,0.808,0.343,1.225c0,0.798-0.257,1.388-0.77,1.767
		c-0.513,0.381-1.131,0.57-1.852,0.57c-0.723,0-1.331-0.151-1.825-0.456c-1.14-0.646-2.071-1.69-2.793-3.134
		c-0.722-1.445-1.083-3.571-1.083-6.384c0-1.9-0.57-3.307-1.71-4.219c-1.14-0.912-2.622-1.367-4.445-1.367h-11.515v12.824
		c0,0.798-0.228,1.454-0.684,1.967c-0.456,0.513-1.045,0.77-1.767,0.77c-0.874,0-1.624-0.266-2.251-0.798
		c-0.627-0.532-0.941-1.178-0.941-1.938V56.431c0-0.76,0.266-1.406,0.798-1.938c0.532-0.532,1.178-0.798,1.938-0.798h16.017
		c2.052,0,3.933,0.504,5.643,1.51c1.71,1.007,3.078,2.394,4.104,4.161c1.026,1.767,1.539,3.753,1.539,5.957
		c0,2.128-0.569,4.113-1.71,5.956c-1.14,1.844-2.603,3.221-4.389,4.133c1.406,0.722,2.517,1.73,3.335,3.021
		c0.817,1.292,1.263,2.793,1.34,4.502c0.151,2.166,0.322,3.64,0.512,4.418c0.19,0.78,0.608,1.339,1.254,1.682
		C366.652,89.301,366.956,89.633,367.184,90.032 M357.238,72.163c0.855-0.685,1.548-1.605,2.081-2.765
		c0.531-1.158,0.797-2.46,0.797-3.904c0-1.824-0.561-3.373-1.681-4.646c-1.121-1.272-2.48-1.909-4.075-1.909h-12.826v14.364h12.996
		C355.48,73.226,356.383,72.847,357.238,72.163"/>
	<path clip-path="url(#SVGID_2_)" fill="none" stroke="#000000" stroke-miterlimit="10" d="M367.184,90.032
		c0.228,0.4,0.343,0.808,0.343,1.225c0,0.798-0.257,1.388-0.77,1.767c-0.513,0.381-1.131,0.57-1.852,0.57
		c-0.723,0-1.331-0.151-1.825-0.456c-1.14-0.646-2.071-1.69-2.793-3.134c-0.722-1.445-1.083-3.571-1.083-6.384
		c0-1.9-0.57-3.307-1.71-4.219c-1.14-0.912-2.622-1.367-4.445-1.367h-11.515v12.824c0,0.798-0.228,1.454-0.684,1.967
		c-0.456,0.513-1.045,0.77-1.767,0.77c-0.874,0-1.624-0.266-2.251-0.798c-0.627-0.532-0.941-1.178-0.941-1.938V56.431
		c0-0.76,0.266-1.406,0.798-1.938c0.532-0.532,1.178-0.798,1.938-0.798h16.017c2.052,0,3.933,0.504,5.643,1.51
		c1.71,1.007,3.078,2.394,4.104,4.161c1.026,1.767,1.539,3.753,1.539,5.957c0,2.128-0.569,4.113-1.71,5.956
		c-1.14,1.844-2.603,3.221-4.389,4.133c1.406,0.722,2.517,1.73,3.335,3.021c0.817,1.292,1.263,2.793,1.34,4.502
		c0.151,2.166,0.322,3.64,0.512,4.418c0.19,0.78,0.608,1.339,1.254,1.682C366.652,89.301,366.956,89.633,367.184,90.032z
		 M357.238,72.163c0.855-0.685,1.548-1.605,2.081-2.765c0.531-1.158,0.797-2.46,0.797-3.904c0-1.824-0.561-3.373-1.681-4.646
		c-1.121-1.272-2.48-1.909-4.075-1.909h-12.826v14.364h12.996C355.48,73.226,356.383,72.847,357.238,72.163z"/>
	<path clip-path="url(#SVGID_2_)" d="M415.72,54.407c0.513,0.476,0.77,1.111,0.77,1.91c0,0.798-0.257,1.424-0.77,1.881
		c-0.513,0.456-1.168,0.684-1.967,0.684h-10.146v31.976c0,0.76-0.276,1.406-0.826,1.938c-0.552,0.532-1.245,0.798-2.081,0.798
		s-1.53-0.266-2.08-0.798c-0.551-0.532-0.827-1.178-0.827-1.938V58.882h-10.089c-0.797,0-1.453-0.237-1.966-0.713
		c-0.513-0.475-0.769-1.112-0.769-1.909c0-0.76,0.256-1.377,0.769-1.853c0.513-0.475,1.169-0.712,1.966-0.712h26.049
		C414.552,53.695,415.207,53.932,415.72,54.407"/>
	<path clip-path="url(#SVGID_2_)" fill="none" stroke="#000000" stroke-miterlimit="10" d="M415.72,54.407
		c0.513,0.476,0.77,1.111,0.77,1.91c0,0.798-0.257,1.424-0.77,1.881c-0.513,0.456-1.168,0.684-1.967,0.684h-10.146v31.976
		c0,0.76-0.276,1.406-0.826,1.938c-0.552,0.532-1.245,0.798-2.081,0.798s-1.53-0.266-2.08-0.798
		c-0.551-0.532-0.827-1.178-0.827-1.938V58.882h-10.089c-0.797,0-1.453-0.237-1.966-0.713c-0.513-0.475-0.769-1.112-0.769-1.909
		c0-0.76,0.256-1.377,0.769-1.853c0.513-0.475,1.169-0.712,1.966-0.712h26.049C414.552,53.695,415.207,53.932,415.72,54.407z"/>
	<path clip-path="url(#SVGID_2_)" d="M465.11,91.143c0,0.761-0.257,1.388-0.77,1.881c-0.513,0.494-1.111,0.741-1.795,0.741
		c-0.533,0-1.017-0.162-1.454-0.484c-0.438-0.321-0.789-0.77-1.054-1.34l-3.534-8.378h-17.613l-3.477,8.436
		c-0.191,0.569-0.504,1.007-0.94,1.311c-0.438,0.304-0.922,0.456-1.454,0.456c-0.798,0-1.406-0.208-1.824-0.627
		c-0.419-0.418-0.627-0.987-0.627-1.71c0-0.151,0.037-0.455,0.114-0.911l14.535-35.226c0.265-0.608,0.636-1.074,1.111-1.397
		c0.475-0.322,1.017-0.446,1.625-0.37c0.57,0,1.083,0.152,1.539,0.456s0.778,0.741,0.969,1.311l14.478,34.77
		C465.054,90.401,465.11,90.765,465.11,91.143 M441.057,78.375h13.281l-6.669-15.96L441.057,78.375z"/>
	<path clip-path="url(#SVGID_2_)" fill="none" stroke="#000000" stroke-miterlimit="10" d="M465.11,91.143
		c0,0.761-0.257,1.388-0.77,1.881c-0.513,0.494-1.111,0.741-1.795,0.741c-0.533,0-1.017-0.162-1.454-0.484
		c-0.438-0.321-0.789-0.77-1.054-1.34l-3.534-8.378h-17.613l-3.477,8.436c-0.191,0.569-0.504,1.007-0.94,1.311
		c-0.438,0.304-0.922,0.456-1.454,0.456c-0.798,0-1.406-0.208-1.824-0.627c-0.419-0.418-0.627-0.987-0.627-1.71
		c0-0.151,0.037-0.455,0.114-0.911l14.535-35.226c0.265-0.608,0.636-1.074,1.111-1.397c0.475-0.322,1.017-0.446,1.625-0.37
		c0.57,0,1.083,0.152,1.539,0.456s0.778,0.741,0.969,1.311l14.478,34.77C465.054,90.401,465.11,90.765,465.11,91.143z
		 M441.057,78.375h13.281l-6.669-15.96L441.057,78.375z"/>
	<path clip-path="url(#SVGID_2_)" d="M545.765,90.858c0,0.836-0.313,1.52-0.94,2.052s-1.339,0.798-2.138,0.798
		c-0.76,0-1.425-0.342-1.994-1.026l-13.852-17.841l-6.384,6.042v9.918c0,0.798-0.266,1.463-0.797,1.995
		c-0.534,0.532-1.217,0.798-2.052,0.798c-0.837,0-1.511-0.266-2.024-0.798s-0.769-1.197-0.769-1.995V56.43
		c0-0.76,0.264-1.405,0.798-1.938c0.531-0.531,1.215-0.798,2.051-0.798c0.835,0,1.511,0.257,2.024,0.77
		c0.513,0.513,0.769,1.168,0.769,1.966v17.728l20.236-19.609c0.72-0.646,1.443-0.969,2.166-0.969c0.683,0,1.272,0.285,1.766,0.855
		c0.494,0.57,0.742,1.179,0.742,1.824c0,0.57-0.267,1.16-0.798,1.767l-13.51,12.769l14.079,18.182
		C545.556,89.51,545.765,90.137,545.765,90.858"/>
	<path clip-path="url(#SVGID_2_)" fill="none" stroke="#000000" stroke-miterlimit="10" d="M545.765,90.858
		c0,0.836-0.313,1.52-0.94,2.052s-1.339,0.798-2.138,0.798c-0.76,0-1.425-0.342-1.994-1.026l-13.852-17.841l-6.384,6.042v9.918
		c0,0.798-0.266,1.463-0.797,1.995c-0.534,0.532-1.217,0.798-2.052,0.798c-0.837,0-1.511-0.266-2.024-0.798
		s-0.769-1.197-0.769-1.995V56.43c0-0.76,0.264-1.405,0.798-1.938c0.531-0.531,1.215-0.798,2.051-0.798
		c0.835,0,1.511,0.257,2.024,0.77c0.513,0.513,0.769,1.168,0.769,1.966v17.728l20.236-19.609c0.72-0.646,1.443-0.969,2.166-0.969
		c0.683,0,1.272,0.285,1.766,0.855c0.494,0.57,0.742,1.179,0.742,1.824c0,0.57-0.267,1.16-0.798,1.767l-13.51,12.769l14.079,18.182
		C545.556,89.51,545.765,90.137,545.765,90.858z"/>
	<path clip-path="url(#SVGID_2_)" d="M597.977,90.032c0.228,0.4,0.342,0.808,0.342,1.225c0,0.798-0.257,1.388-0.77,1.767
		c-0.513,0.381-1.131,0.57-1.853,0.57c-0.723,0-1.331-0.151-1.824-0.456c-1.14-0.646-2.071-1.69-2.793-3.134
		c-0.723-1.445-1.083-3.571-1.083-6.384c0-1.9-0.57-3.307-1.71-4.219c-1.14-0.912-2.622-1.367-4.446-1.367h-11.514v12.824
		c0,0.798-0.228,1.454-0.684,1.967s-1.046,0.77-1.768,0.77c-0.874,0-1.624-0.266-2.251-0.798s-0.94-1.178-0.94-1.938V56.431
		c0-0.76,0.265-1.406,0.798-1.938c0.531-0.532,1.177-0.798,1.938-0.798h16.018c2.052,0,3.933,0.504,5.643,1.51
		c1.71,1.007,3.078,2.394,4.104,4.161c1.025,1.767,1.538,3.753,1.538,5.957c0,2.128-0.569,4.113-1.71,5.956
		c-1.14,1.844-2.603,3.221-4.389,4.133c1.405,0.722,2.517,1.73,3.335,3.021c0.816,1.292,1.263,2.793,1.339,4.502
		c0.151,2.166,0.322,3.64,0.514,4.418c0.189,0.78,0.607,1.339,1.254,1.682C597.443,89.301,597.748,89.633,597.977,90.032
		 M588.029,72.163c0.855-0.685,1.548-1.605,2.081-2.765c0.531-1.158,0.798-2.46,0.798-3.904c0-1.824-0.562-3.373-1.682-4.646
		c-1.121-1.272-2.479-1.909-4.075-1.909h-12.825v14.364h12.996C586.271,73.226,587.176,72.847,588.029,72.163"/>
	<path clip-path="url(#SVGID_2_)" fill="none" stroke="#000000" stroke-miterlimit="10" d="M597.977,90.032
		c0.228,0.4,0.342,0.808,0.342,1.225c0,0.798-0.257,1.388-0.77,1.767c-0.513,0.381-1.131,0.57-1.853,0.57
		c-0.723,0-1.331-0.151-1.824-0.456c-1.14-0.646-2.071-1.69-2.793-3.134c-0.723-1.445-1.083-3.571-1.083-6.384
		c0-1.9-0.57-3.307-1.71-4.219c-1.14-0.912-2.622-1.367-4.446-1.367h-11.514v12.824c0,0.798-0.228,1.454-0.684,1.967
		s-1.046,0.77-1.768,0.77c-0.874,0-1.624-0.266-2.251-0.798s-0.94-1.178-0.94-1.938V56.431c0-0.76,0.265-1.406,0.798-1.938
		c0.531-0.532,1.177-0.798,1.938-0.798h16.018c2.052,0,3.933,0.504,5.643,1.51c1.71,1.007,3.078,2.394,4.104,4.161
		c1.025,1.767,1.538,3.753,1.538,5.957c0,2.128-0.569,4.113-1.71,5.956c-1.14,1.844-2.603,3.221-4.389,4.133
		c1.405,0.722,2.517,1.73,3.335,3.021c0.816,1.292,1.263,2.793,1.339,4.502c0.151,2.166,0.322,3.64,0.514,4.418
		c0.189,0.78,0.607,1.339,1.254,1.682C597.443,89.301,597.748,89.633,597.977,90.032z M588.029,72.163
		c0.855-0.685,1.548-1.605,2.081-2.765c0.531-1.158,0.798-2.46,0.798-3.904c0-1.824-0.562-3.373-1.682-4.646
		c-1.121-1.272-2.479-1.909-4.075-1.909h-12.825v14.364h12.996C586.271,73.226,587.176,72.847,588.029,72.163z"/>
	<path clip-path="url(#SVGID_2_)" d="M648.051,89.12c0.513,0.476,0.77,1.093,0.77,1.853c0,0.76-0.267,1.387-0.798,1.88
		c-0.534,0.494-1.179,0.741-1.938,0.741h-25.992c-0.798,0-1.473-0.275-2.023-0.826s-0.826-1.169-0.826-1.852
		c0-0.608,0.208-1.178,0.627-1.71l23.256-30.324h-19.096c-0.797,0-1.453-0.247-1.966-0.741s-0.77-1.121-0.77-1.881
		c0-0.76,0.257-1.377,0.77-1.853c0.513-0.475,1.169-0.712,1.966-0.712h24.396c0.76,0,1.444,0.256,2.052,0.769
		c0.607,0.513,0.912,1.15,0.912,1.909c0,0.533-0.209,1.103-0.627,1.71l-23.256,30.325h20.577
		C646.882,88.408,647.537,88.645,648.051,89.12"/>
	<path clip-path="url(#SVGID_2_)" fill="none" stroke="#000000" stroke-miterlimit="10" d="M648.051,89.12
		c0.513,0.476,0.77,1.093,0.77,1.853c0,0.76-0.267,1.387-0.798,1.88c-0.534,0.494-1.179,0.741-1.938,0.741h-25.992
		c-0.798,0-1.473-0.275-2.023-0.826s-0.826-1.169-0.826-1.852c0-0.608,0.208-1.178,0.627-1.71l23.256-30.324h-19.096
		c-0.797,0-1.453-0.247-1.966-0.741s-0.77-1.121-0.77-1.881c0-0.76,0.257-1.377,0.77-1.853c0.513-0.475,1.169-0.712,1.966-0.712
		h24.396c0.76,0,1.444,0.256,2.052,0.769c0.607,0.513,0.912,1.15,0.912,1.909c0,0.533-0.209,1.103-0.627,1.71l-23.256,30.325h20.577
		C646.882,88.408,647.537,88.645,648.051,89.12z"/>
	<path clip-path="url(#SVGID_2_)" d="M697.327,57.969L685.072,75.24v15.618c0,0.76-0.257,1.405-0.77,1.938s-1.131,0.798-1.853,0.798
		c-0.761,0-1.406-0.266-1.938-0.798c-0.533-0.532-0.798-1.178-0.798-1.938V74.784l-12.199-16.473
		c-0.532-0.684-0.797-1.368-0.797-2.052c0-0.76,0.304-1.405,0.912-1.938c0.606-0.532,1.272-0.798,1.994-0.798
		c0.874,0,1.615,0.419,2.223,1.254l10.717,14.82l10.317-14.763c0.607-0.874,1.367-1.311,2.279-1.311
		c0.722,0,1.349,0.266,1.881,0.798c0.532,0.533,0.799,1.178,0.799,1.938C697.841,56.829,697.669,57.399,697.327,57.969"/>
	<path clip-path="url(#SVGID_2_)" fill="none" stroke="#000000" stroke-miterlimit="10" d="M697.327,57.969L685.072,75.24v15.618
		c0,0.76-0.257,1.405-0.77,1.938s-1.131,0.798-1.853,0.798c-0.761,0-1.406-0.266-1.938-0.798c-0.533-0.532-0.798-1.178-0.798-1.938
		V74.784l-12.199-16.473c-0.532-0.684-0.797-1.368-0.797-2.052c0-0.76,0.304-1.405,0.912-1.938c0.606-0.532,1.272-0.798,1.994-0.798
		c0.874,0,1.615,0.419,2.223,1.254l10.717,14.82l10.317-14.763c0.607-0.874,1.367-1.311,2.279-1.311
		c0.722,0,1.349,0.266,1.881,0.798c0.532,0.533,0.799,1.178,0.799,1.938C697.841,56.829,697.669,57.399,697.327,57.969z"/>
	<path clip-path="url(#SVGID_2_)" d="M754.213,54.464c0.531,0.513,0.798,1.15,0.798,1.909v34.485c0,0.76-0.257,1.406-0.77,1.938
		s-1.188,0.798-2.023,0.798c-0.836,0-1.521-0.257-2.052-0.77c-0.533-0.513-0.798-1.169-0.798-1.966V64.467L738.31,81.225
		c-0.267,0.342-0.599,0.627-0.997,0.856c-0.399,0.227-0.808,0.323-1.226,0.285c-0.381,0.038-0.771-0.058-1.169-0.285
		c-0.398-0.229-0.731-0.514-0.997-0.856l-11.115-17.271v26.904c0,0.797-0.237,1.454-0.713,1.966s-1.111,0.77-1.909,0.77
		c-0.761,0-1.378-0.257-1.853-0.77c-0.476-0.513-0.712-1.169-0.712-1.966V56.373c0-0.721,0.265-1.358,0.798-1.909
		c0.531-0.55,1.196-0.827,1.995-0.827c0.456,0,0.901,0.115,1.339,0.342c0.437,0.228,0.788,0.533,1.055,0.912l13.509,20.463
		l13.681-20.463c0.607-0.835,1.367-1.254,2.279-1.254C753.034,53.675,753.68,53.951,754.213,54.464"/>
	<path clip-path="url(#SVGID_2_)" fill="none" stroke="#000000" stroke-miterlimit="10" d="M754.213,54.464
		c0.531,0.513,0.798,1.15,0.798,1.909v34.485c0,0.76-0.257,1.406-0.77,1.938s-1.188,0.798-2.023,0.798
		c-0.836,0-1.521-0.257-2.052-0.77c-0.533-0.513-0.798-1.169-0.798-1.966V64.467L738.31,81.225
		c-0.267,0.342-0.599,0.627-0.997,0.856c-0.399,0.227-0.808,0.323-1.226,0.285c-0.381,0.038-0.771-0.058-1.169-0.285
		c-0.398-0.229-0.731-0.514-0.997-0.856l-11.115-17.271v26.904c0,0.797-0.237,1.454-0.713,1.966s-1.111,0.77-1.909,0.77
		c-0.761,0-1.378-0.257-1.853-0.77c-0.476-0.513-0.712-1.169-0.712-1.966V56.373c0-0.721,0.265-1.358,0.798-1.909
		c0.531-0.55,1.196-0.827,1.995-0.827c0.456,0,0.901,0.115,1.339,0.342c0.437,0.228,0.788,0.533,1.055,0.912l13.509,20.463
		l13.681-20.463c0.607-0.835,1.367-1.254,2.279-1.254C753.034,53.675,753.68,53.951,754.213,54.464z"/>
	<path clip-path="url(#SVGID_2_)" d="M783.339,92.796c-0.569,0.532-1.234,0.798-1.994,0.798c-0.837,0-1.511-0.266-2.023-0.798
		c-0.514-0.532-0.77-1.197-0.77-1.995V56.43c0-0.759,0.265-1.405,0.798-1.938c0.531-0.531,1.217-0.798,2.053-0.798
		c0.759,0,1.414,0.267,1.966,0.798c0.55,0.533,0.826,1.179,0.826,1.938v34.371C784.194,91.599,783.909,92.264,783.339,92.796"/>
	<path clip-path="url(#SVGID_2_)" fill="none" stroke="#000000" stroke-miterlimit="10" d="M783.339,92.796
		c-0.569,0.532-1.234,0.798-1.994,0.798c-0.837,0-1.511-0.266-2.023-0.798c-0.514-0.532-0.77-1.197-0.77-1.995V56.43
		c0-0.759,0.265-1.405,0.798-1.938c0.531-0.531,1.217-0.798,2.053-0.798c0.759,0,1.414,0.267,1.966,0.798
		c0.55,0.533,0.826,1.179,0.826,1.938v34.371C784.194,91.599,783.909,92.264,783.339,92.796z"/>
	<path clip-path="url(#SVGID_2_)" d="M839.312,54.407c0.457,0.476,0.686,1.074,0.686,1.795v34.6c0,0.797-0.257,1.462-0.77,1.994
		s-1.169,0.798-1.967,0.798c-0.418,0-0.826-0.065-1.226-0.199c-0.398-0.133-0.712-0.332-0.94-0.599l-22.4-29.183v27.473
		c0,0.722-0.238,1.32-0.714,1.795c-0.475,0.476-1.073,0.713-1.795,0.713s-1.311-0.237-1.767-0.713
		c-0.456-0.475-0.684-1.073-0.684-1.795V56.43c0-0.797,0.256-1.453,0.77-1.966c0.513-0.513,1.148-0.769,1.909-0.769
		c0.456,0,0.893,0.085,1.311,0.256s0.741,0.409,0.97,0.712l22.344,29.241V56.202c0-0.721,0.236-1.319,0.712-1.795
		c0.476-0.475,1.073-0.712,1.796-0.712C838.268,53.695,838.855,53.932,839.312,54.407 M822.583,50.93
		c-0.323-0.285-0.484-0.674-0.484-1.168s0.229-0.931,0.685-1.311l5.016-4.218c0.798-0.646,1.557-0.97,2.28-0.97
		c0.646,0,1.226,0.229,1.738,0.685s0.77,1.007,0.77,1.652c0,0.495-0.152,0.97-0.456,1.426c-0.305,0.456-0.723,0.817-1.254,1.083
		l-5.643,2.906c-0.456,0.228-0.894,0.343-1.312,0.343C823.353,51.358,822.906,51.215,822.583,50.93"/>
	<path clip-path="url(#SVGID_2_)" fill="none" stroke="#000000" stroke-miterlimit="10" d="M839.312,54.407
		c0.457,0.476,0.686,1.074,0.686,1.795v34.6c0,0.797-0.257,1.462-0.77,1.994s-1.169,0.798-1.967,0.798
		c-0.418,0-0.826-0.065-1.226-0.199c-0.398-0.133-0.712-0.332-0.94-0.599l-22.4-29.183v27.473c0,0.722-0.238,1.32-0.714,1.795
		c-0.475,0.476-1.073,0.713-1.795,0.713s-1.311-0.237-1.767-0.713c-0.456-0.475-0.684-1.073-0.684-1.795V56.43
		c0-0.797,0.256-1.453,0.77-1.966c0.513-0.513,1.148-0.769,1.909-0.769c0.456,0,0.893,0.085,1.311,0.256s0.741,0.409,0.97,0.712
		l22.344,29.241V56.202c0-0.721,0.236-1.319,0.712-1.795c0.476-0.475,1.073-0.712,1.796-0.712
		C838.268,53.695,838.855,53.932,839.312,54.407z M822.583,50.93c-0.323-0.285-0.484-0.674-0.484-1.168s0.229-0.931,0.685-1.311
		l5.016-4.218c0.798-0.646,1.557-0.97,2.28-0.97c0.646,0,1.226,0.229,1.738,0.685s0.77,1.007,0.77,1.652
		c0,0.495-0.152,0.97-0.456,1.426c-0.305,0.456-0.723,0.817-1.254,1.083l-5.643,2.906c-0.456,0.228-0.894,0.343-1.312,0.343
		C823.353,51.358,822.906,51.215,822.583,50.93z"/>
	<path clip-path="url(#SVGID_2_)" d="M868.269,92.995c-2.129-0.778-4.161-2.042-6.099-3.79c-0.797-0.684-1.197-1.462-1.197-2.336
		c0-0.685,0.266-1.302,0.798-1.853c0.532-0.551,1.159-0.827,1.881-0.827c0.646,0,1.197,0.21,1.653,0.627
		c1.52,1.406,3.087,2.442,4.702,3.106c1.616,0.666,3.448,0.998,5.501,0.998c2.394,0,4.417-0.55,6.07-1.653
		c1.653-1.102,2.479-2.488,2.479-4.161c-0.038-1.976-0.865-3.505-2.479-4.588c-1.615-1.083-4.075-1.985-7.382-2.708
		c-3.914-0.798-6.925-2.108-9.034-3.933c-2.109-1.824-3.163-4.351-3.163-7.581c0-2.241,0.588-4.208,1.767-5.899
		c1.178-1.691,2.812-2.993,4.902-3.905c2.089-0.912,4.445-1.368,7.067-1.368c2.356,0,4.579,0.38,6.669,1.14
		c2.09,0.761,3.781,1.767,5.073,3.021c0.874,0.761,1.313,1.577,1.313,2.451c0,0.684-0.258,1.292-0.771,1.824
		c-0.514,0.533-1.132,0.798-1.853,0.798c-0.533,0-0.97-0.151-1.312-0.456c-0.988-0.988-2.356-1.824-4.104-2.508
		c-1.749-0.684-3.42-1.026-5.017-1.026c-2.546,0-4.569,0.523-6.07,1.567c-1.501,1.046-2.25,2.423-2.25,4.133
		c0,1.863,0.749,3.287,2.25,4.275c1.501,0.989,3.733,1.824,6.697,2.508c2.964,0.646,5.387,1.406,7.268,2.28
		c1.881,0.874,3.335,2.09,4.36,3.648c1.026,1.558,1.539,3.591,1.539,6.099c0,2.204-0.618,4.161-1.853,5.871
		c-1.235,1.71-2.916,3.04-5.044,3.989c-2.129,0.95-4.466,1.426-7.01,1.426C872.848,94.164,870.396,93.773,868.269,92.995"/>
	<path clip-path="url(#SVGID_2_)" fill="none" stroke="#000000" stroke-miterlimit="10" d="M868.269,92.995
		c-2.129-0.778-4.161-2.042-6.099-3.79c-0.797-0.684-1.197-1.462-1.197-2.336c0-0.685,0.266-1.302,0.798-1.853
		c0.532-0.551,1.159-0.827,1.881-0.827c0.646,0,1.197,0.21,1.653,0.627c1.52,1.406,3.087,2.442,4.702,3.106
		c1.616,0.666,3.448,0.998,5.501,0.998c2.394,0,4.417-0.55,6.07-1.653c1.653-1.102,2.479-2.488,2.479-4.161
		c-0.038-1.976-0.865-3.505-2.479-4.588c-1.615-1.083-4.075-1.985-7.382-2.708c-3.914-0.798-6.925-2.108-9.034-3.933
		c-2.109-1.824-3.163-4.351-3.163-7.581c0-2.241,0.588-4.208,1.767-5.899c1.178-1.691,2.812-2.993,4.902-3.905
		c2.089-0.912,4.445-1.368,7.067-1.368c2.356,0,4.579,0.38,6.669,1.14c2.09,0.761,3.781,1.767,5.073,3.021
		c0.874,0.761,1.313,1.577,1.313,2.451c0,0.684-0.258,1.292-0.771,1.824c-0.514,0.533-1.132,0.798-1.853,0.798
		c-0.533,0-0.97-0.151-1.312-0.456c-0.988-0.988-2.356-1.824-4.104-2.508c-1.749-0.684-3.42-1.026-5.017-1.026
		c-2.546,0-4.569,0.523-6.07,1.567c-1.501,1.046-2.25,2.423-2.25,4.133c0,1.863,0.749,3.287,2.25,4.275
		c1.501,0.989,3.733,1.824,6.697,2.508c2.964,0.646,5.387,1.406,7.268,2.28c1.881,0.874,3.335,2.09,4.36,3.648
		c1.026,1.558,1.539,3.591,1.539,6.099c0,2.204-0.618,4.161-1.853,5.871c-1.235,1.71-2.916,3.04-5.044,3.989
		c-2.129,0.95-4.466,1.426-7.01,1.426C872.848,94.164,870.396,93.773,868.269,92.995z"/>
	<path clip-path="url(#SVGID_2_)" d="M941.74,90.858c0,0.836-0.313,1.52-0.94,2.052s-1.339,0.798-2.138,0.798
		c-0.76,0-1.425-0.342-1.994-1.026l-13.852-17.841l-6.384,6.042v9.918c0,0.798-0.267,1.463-0.798,1.995
		c-0.533,0.532-1.217,0.798-2.052,0.798c-0.837,0-1.511-0.266-2.023-0.798c-0.514-0.532-0.77-1.197-0.77-1.995V56.43
		c0-0.76,0.265-1.405,0.798-1.938c0.531-0.531,1.215-0.798,2.052-0.798c0.835,0,1.511,0.257,2.023,0.77
		c0.513,0.513,0.77,1.168,0.77,1.966v17.728l20.235-19.609c0.721-0.646,1.443-0.969,2.166-0.969c0.684,0,1.272,0.285,1.767,0.855
		c0.493,0.57,0.741,1.179,0.741,1.824c0,0.57-0.267,1.16-0.798,1.767l-13.51,12.769l14.079,18.182
		C941.531,89.51,941.74,90.137,941.74,90.858"/>
	<path clip-path="url(#SVGID_2_)" fill="none" stroke="#000000" stroke-miterlimit="10" d="M941.74,90.858
		c0,0.836-0.313,1.52-0.94,2.052s-1.339,0.798-2.138,0.798c-0.76,0-1.425-0.342-1.994-1.026l-13.852-17.841l-6.384,6.042v9.918
		c0,0.798-0.267,1.463-0.798,1.995c-0.533,0.532-1.217,0.798-2.052,0.798c-0.837,0-1.511-0.266-2.023-0.798
		c-0.514-0.532-0.77-1.197-0.77-1.995V56.43c0-0.76,0.265-1.405,0.798-1.938c0.531-0.531,1.215-0.798,2.052-0.798
		c0.835,0,1.511,0.257,2.023,0.77c0.513,0.513,0.77,1.168,0.77,1.966v17.728l20.235-19.609c0.721-0.646,1.443-0.969,2.166-0.969
		c0.684,0,1.272,0.285,1.767,0.855c0.493,0.57,0.741,1.179,0.741,1.824c0,0.57-0.267,1.16-0.798,1.767l-13.51,12.769l14.079,18.182
		C941.531,89.51,941.74,90.137,941.74,90.858z"/>
	<path clip-path="url(#SVGID_2_)" d="M993.496,91.143c0,0.761-0.257,1.388-0.77,1.881c-0.514,0.494-1.112,0.741-1.796,0.741
		c-0.532,0-1.017-0.162-1.453-0.484c-0.438-0.321-0.789-0.77-1.056-1.34l-3.533-8.378h-17.613l-3.477,8.436
		c-0.19,0.569-0.504,1.007-0.94,1.311c-0.438,0.304-0.922,0.456-1.454,0.456c-0.798,0-1.406-0.208-1.823-0.627
		c-0.419-0.418-0.627-0.987-0.627-1.71c0-0.151,0.037-0.455,0.113-0.911l14.535-35.226c0.266-0.608,0.636-1.074,1.11-1.397
		c0.476-0.322,1.018-0.446,1.625-0.37c0.571,0,1.084,0.152,1.54,0.456s0.778,0.741,0.969,1.311l14.479,34.77
		C993.438,90.401,993.496,90.765,993.496,91.143 M969.441,78.375h13.281l-6.669-15.96L969.441,78.375z"/>
	<path clip-path="url(#SVGID_2_)" fill="none" stroke="#000000" stroke-miterlimit="10" d="M993.496,91.143
		c0,0.761-0.257,1.388-0.77,1.881c-0.514,0.494-1.112,0.741-1.796,0.741c-0.532,0-1.017-0.162-1.453-0.484
		c-0.438-0.321-0.789-0.77-1.056-1.34l-3.533-8.378h-17.613l-3.477,8.436c-0.19,0.569-0.504,1.007-0.94,1.311
		c-0.438,0.304-0.922,0.456-1.454,0.456c-0.798,0-1.406-0.208-1.823-0.627c-0.419-0.418-0.627-0.987-0.627-1.71
		c0-0.151,0.037-0.455,0.113-0.911l14.535-35.226c0.266-0.608,0.636-1.074,1.11-1.397c0.476-0.322,1.018-0.446,1.625-0.37
		c0.571,0,1.084,0.152,1.54,0.456s0.778,0.741,0.969,1.311l14.479,34.77C993.438,90.401,993.496,90.765,993.496,91.143z
		 M969.441,78.375h13.281l-6.669-15.96L969.441,78.375z"/>
	<path clip-path="url(#SVGID_2_)" fill="#ED4887" d="M271.356,178.295c0,1.473-0.571,2.705-1.711,3.698
		c-1.142,0.993-2.337,1.489-3.588,1.489c-1.619,0-2.908-0.587-3.864-1.766l-21.747-23.071l-6.623,5.961v13.688
		c0,1.473-0.497,2.724-1.491,3.753c-0.993,1.032-2.226,1.546-3.698,1.546c-1.546,0-2.815-0.514-3.808-1.546
		c-0.994-1.029-1.491-2.28-1.491-3.753v-71.093c0-1.472,0.497-2.722,1.491-3.753c0.993-1.03,2.262-1.546,3.808-1.546
		c1.472,0,2.705,0.516,3.698,1.546c0.994,1.031,1.491,2.281,1.491,3.753v44.819l27.046-24.838c1.25-1.104,2.539-1.656,3.863-1.656
		c1.251,0,2.391,0.535,3.423,1.601c1.03,1.067,1.545,2.19,1.545,3.367c0,1.473-0.7,2.798-2.097,3.974l-19.098,17.001l21.195,22.962
		C270.804,175.609,271.356,176.897,271.356,178.295"/>
	<path clip-path="url(#SVGID_2_)" fill="none" stroke="#ED4887" stroke-width="2" stroke-miterlimit="10" d="M271.356,178.295
		c0,1.473-0.571,2.705-1.711,3.698c-1.142,0.993-2.337,1.489-3.588,1.489c-1.619,0-2.908-0.587-3.864-1.766l-21.747-23.071
		l-6.623,5.961v13.688c0,1.473-0.497,2.724-1.491,3.753c-0.993,1.032-2.226,1.546-3.698,1.546c-1.546,0-2.815-0.514-3.808-1.546
		c-0.994-1.029-1.491-2.28-1.491-3.753v-71.093c0-1.472,0.497-2.722,1.491-3.753c0.993-1.03,2.262-1.546,3.808-1.546
		c1.472,0,2.705,0.516,3.698,1.546c0.994,1.031,1.491,2.281,1.491,3.753v44.819l27.046-24.838c1.25-1.104,2.539-1.656,3.863-1.656
		c1.251,0,2.391,0.535,3.423,1.601c1.03,1.067,1.545,2.19,1.545,3.367c0,1.473-0.7,2.798-2.097,3.974l-19.098,17.001l21.195,22.962
		C270.804,175.609,271.356,176.897,271.356,178.295z"/>
	<path clip-path="url(#SVGID_2_)" fill="#ED4887" d="M335.605,170.126c-2.577,4.563-6.09,8.133-10.542,10.708
		c-4.454,2.578-9.366,3.863-14.738,3.863c-5.373,0-10.285-1.285-14.737-3.863c-4.454-2.575-7.967-6.145-10.543-10.708
		c-2.576-4.563-3.863-9.714-3.863-15.455c0-5.74,1.287-10.929,3.863-15.565c2.576-4.637,6.089-8.241,10.543-10.817
		c4.452-2.576,9.364-3.864,14.737-3.864c5.372,0,10.284,1.288,14.738,3.864c4.452,2.576,7.965,6.181,10.542,10.817
		c2.576,4.637,3.864,9.825,3.864,15.565C339.47,160.412,338.182,165.563,335.605,170.126 M326.499,144.018
		c-1.656-3.127-3.902-5.556-6.734-7.285c-2.834-1.729-5.98-2.595-9.439-2.595c-3.46,0-6.606,0.866-9.438,2.595
		c-2.834,1.729-5.078,4.158-6.734,7.285c-1.656,3.13-2.484,6.68-2.484,10.653c0,3.901,0.828,7.396,2.484,10.487
		c1.656,3.091,3.9,5.502,6.734,7.23c2.832,1.73,5.978,2.595,9.438,2.595c3.459,0,6.605-0.864,9.439-2.595
		c2.832-1.729,5.078-4.14,6.734-7.23c1.656-3.091,2.484-6.586,2.484-10.487C328.982,150.697,328.154,147.147,326.499,144.018"/>
	<path clip-path="url(#SVGID_2_)" fill="none" stroke="#ED4887" stroke-width="2" stroke-miterlimit="10" d="M335.605,170.126
		c-2.577,4.563-6.09,8.133-10.542,10.708c-4.454,2.578-9.366,3.863-14.738,3.863c-5.373,0-10.285-1.285-14.737-3.863
		c-4.454-2.575-7.967-6.145-10.543-10.708c-2.576-4.563-3.863-9.714-3.863-15.455c0-5.74,1.287-10.929,3.863-15.565
		c2.576-4.637,6.089-8.241,10.543-10.817c4.452-2.576,9.364-3.864,14.737-3.864c5.372,0,10.284,1.288,14.738,3.864
		c4.452,2.576,7.965,6.181,10.542,10.817c2.576,4.637,3.864,9.825,3.864,15.565C339.47,160.412,338.182,165.563,335.605,170.126z
		 M326.499,144.018c-1.656-3.127-3.902-5.556-6.734-7.285c-2.834-1.729-5.98-2.595-9.439-2.595c-3.46,0-6.606,0.866-9.438,2.595
		c-2.834,1.729-5.078,4.158-6.734,7.285c-1.656,3.13-2.484,6.68-2.484,10.653c0,3.901,0.828,7.396,2.484,10.487
		c1.656,3.091,3.9,5.502,6.734,7.23c2.832,1.73,5.978,2.595,9.438,2.595c3.459,0,6.605-0.864,9.439-2.595
		c2.832-1.729,5.078-4.14,6.734-7.23c1.656-3.091,2.484-6.586,2.484-10.487C328.982,150.697,328.154,147.147,326.499,144.018z"/>
	<path clip-path="url(#SVGID_2_)" fill="#ED4887" d="M388.813,125.914c1.397,0.993,2.097,2.227,2.097,3.698
		c0,1.766-0.46,3.109-1.38,4.03c-0.921,0.92-2.042,1.379-3.366,1.379c-0.663,0-1.657-0.221-2.981-0.663
		c-1.546-0.514-2.76-0.772-3.643-0.772c-2.282,0-4.509,0.792-6.679,2.373c-2.172,1.584-3.938,3.754-5.299,6.514
		c-1.362,2.76-2.042,5.833-2.042,9.218v26.604c0,1.474-0.497,2.724-1.49,3.753c-0.994,1.032-2.263,1.546-3.809,1.546
		c-1.545,0-2.798-0.497-3.753-1.49c-0.958-0.993-1.435-2.263-1.435-3.809v-47.248c0-1.472,0.496-2.722,1.49-3.753
		c0.994-1.03,2.225-1.546,3.698-1.546c1.546,0,2.815,0.516,3.809,1.546c0.993,1.031,1.49,2.281,1.49,3.753v5.63
		c1.618-3.604,4.046-6.53,7.286-8.776c3.237-2.244,6.917-3.402,11.039-3.477C385.758,124.424,387.415,124.92,388.813,125.914"/>
	<path clip-path="url(#SVGID_2_)" fill="none" stroke="#ED4887" stroke-width="2" stroke-miterlimit="10" d="M388.813,125.914
		c1.397,0.993,2.097,2.227,2.097,3.698c0,1.766-0.46,3.109-1.38,4.03c-0.921,0.92-2.042,1.379-3.366,1.379
		c-0.663,0-1.657-0.221-2.981-0.663c-1.546-0.514-2.76-0.772-3.643-0.772c-2.282,0-4.509,0.792-6.679,2.373
		c-2.172,1.584-3.938,3.754-5.299,6.514c-1.362,2.76-2.042,5.833-2.042,9.218v26.604c0,1.474-0.497,2.724-1.49,3.753
		c-0.994,1.032-2.263,1.546-3.809,1.546c-1.545,0-2.798-0.497-3.753-1.49c-0.958-0.993-1.435-2.263-1.435-3.809v-47.248
		c0-1.472,0.496-2.722,1.49-3.753c0.994-1.03,2.225-1.546,3.698-1.546c1.546,0,2.815,0.516,3.809,1.546
		c0.993,1.031,1.49,2.281,1.49,3.753v5.63c1.618-3.604,4.046-6.53,7.286-8.776c3.237-2.244,6.917-3.402,11.039-3.477
		C385.758,124.424,387.415,124.92,388.813,125.914z"/>
	<path clip-path="url(#SVGID_2_)" fill="#ED4887" d="M450.744,155.83c-1.031,0.921-2.245,1.38-3.643,1.38h-38.858
		c0.514,5.373,2.556,9.679,6.127,12.916c3.568,3.239,7.929,4.857,13.082,4.857c3.532,0,6.402-0.515,8.61-1.546
		c2.208-1.029,4.157-2.354,5.851-3.974c1.104-0.663,2.17-0.995,3.201-0.995c1.251,0,2.3,0.442,3.146,1.326
		c0.845,0.883,1.27,1.914,1.27,3.092c0,1.545-0.737,2.943-2.208,4.194c-2.135,2.135-4.968,3.938-8.5,5.409
		c-3.533,1.471-7.139,2.207-10.819,2.207c-5.961,0-11.205-1.25-15.731-3.753c-4.525-2.501-8.022-5.997-10.487-10.487
		c-2.466-4.488-3.698-9.566-3.698-15.234c0-6.182,1.269-11.608,3.809-16.282c2.539-4.673,5.887-8.261,10.045-10.764
		c4.157-2.501,8.628-3.753,13.413-3.753c4.709,0,9.125,1.213,13.247,3.643c4.121,2.429,7.433,5.777,9.936,10.046
		c2.501,4.269,3.789,9.052,3.863,14.351C452.326,153.788,451.774,154.911,450.744,155.83 M414.646,137.615
		c-3.019,2.318-5.006,5.906-5.961,10.764h32.565v-0.884c-0.369-3.899-2.116-7.101-5.243-9.604
		c-3.129-2.501-6.679-3.755-10.653-3.755C421.231,134.137,417.663,135.297,414.646,137.615"/>
	<path clip-path="url(#SVGID_2_)" fill="none" stroke="#ED4887" stroke-width="2" stroke-miterlimit="10" d="M450.744,155.83
		c-1.031,0.921-2.245,1.38-3.643,1.38h-38.858c0.514,5.373,2.556,9.679,6.127,12.916c3.568,3.239,7.929,4.857,13.082,4.857
		c3.532,0,6.402-0.515,8.61-1.546c2.208-1.029,4.157-2.354,5.851-3.974c1.104-0.663,2.17-0.995,3.201-0.995
		c1.251,0,2.3,0.442,3.146,1.326c0.845,0.883,1.27,1.914,1.27,3.092c0,1.545-0.737,2.943-2.208,4.194
		c-2.135,2.135-4.968,3.938-8.5,5.409c-3.533,1.471-7.139,2.207-10.819,2.207c-5.961,0-11.205-1.25-15.731-3.753
		c-4.525-2.501-8.022-5.997-10.487-10.487c-2.466-4.488-3.698-9.566-3.698-15.234c0-6.182,1.269-11.608,3.809-16.282
		c2.539-4.673,5.887-8.261,10.045-10.764c4.157-2.501,8.628-3.753,13.413-3.753c4.709,0,9.125,1.213,13.247,3.643
		c4.121,2.429,7.433,5.777,9.936,10.046c2.501,4.269,3.789,9.052,3.863,14.351C452.326,153.788,451.774,154.911,450.744,155.83z
		 M414.646,137.615c-3.019,2.318-5.006,5.906-5.961,10.764h32.565v-0.884c-0.369-3.899-2.116-7.101-5.243-9.604
		c-3.129-2.501-6.679-3.755-10.653-3.755C421.231,134.137,417.663,135.297,414.646,137.615z"/>
	<path clip-path="url(#SVGID_2_)" fill="#ED4887" d="M510.576,128.563c4.047,2.539,7.23,6.09,9.549,10.652
		c2.318,4.564,3.477,9.715,3.477,15.455c0,5.739-1.159,10.874-3.477,15.399c-2.319,4.526-5.502,8.078-9.549,10.653
		c-4.048,2.577-8.5,3.863-13.358,3.863c-3.827,0-7.396-0.847-10.708-2.539c-3.312-1.691-5.999-3.753-8.058-6.182v24.507
		c0,1.472-0.497,2.723-1.49,3.754c-0.994,1.029-2.264,1.545-3.809,1.545c-1.473,0-2.705-0.496-3.698-1.49
		c-0.994-0.993-1.49-2.263-1.49-3.809v-69.437c0-1.546,0.477-2.832,1.435-3.863c0.955-1.03,2.208-1.546,3.753-1.546
		s2.815,0.516,3.809,1.546c0.993,1.031,1.49,2.317,1.49,3.863v3.201c1.766-2.575,4.341-4.783,7.727-6.623
		c3.385-1.839,6.991-2.76,10.819-2.76C502.002,124.755,506.528,126.024,510.576,128.563 M504.946,172.224
		c2.722-1.767,4.838-4.176,6.348-7.231c1.507-3.053,2.262-6.494,2.262-10.321c0-3.826-0.755-7.267-2.262-10.321
		c-1.51-3.054-3.626-5.465-6.348-7.231c-2.724-1.766-5.778-2.649-9.163-2.649c-3.46,0-6.551,0.866-9.273,2.595
		c-2.723,1.729-4.839,4.139-6.347,7.23c-1.509,3.091-2.263,6.551-2.263,10.377c0,3.827,0.754,7.286,2.263,10.377
		c1.508,3.091,3.624,5.502,6.347,7.23c2.722,1.73,5.813,2.595,9.273,2.595C499.168,174.873,502.222,173.989,504.946,172.224"/>
	<path clip-path="url(#SVGID_2_)" fill="none" stroke="#ED4887" stroke-width="2" stroke-miterlimit="10" d="M510.576,128.563
		c4.047,2.539,7.23,6.09,9.549,10.652c2.318,4.564,3.477,9.715,3.477,15.455c0,5.739-1.159,10.874-3.477,15.399
		c-2.319,4.526-5.502,8.078-9.549,10.653c-4.048,2.577-8.5,3.863-13.358,3.863c-3.827,0-7.396-0.847-10.708-2.539
		c-3.312-1.691-5.999-3.753-8.058-6.182v24.507c0,1.472-0.497,2.723-1.49,3.754c-0.994,1.029-2.264,1.545-3.809,1.545
		c-1.473,0-2.705-0.496-3.698-1.49c-0.994-0.993-1.49-2.263-1.49-3.809v-69.437c0-1.546,0.477-2.832,1.435-3.863
		c0.955-1.03,2.208-1.546,3.753-1.546s2.815,0.516,3.809,1.546c0.993,1.031,1.49,2.317,1.49,3.863v3.201
		c1.766-2.575,4.341-4.783,7.727-6.623c3.385-1.839,6.991-2.76,10.819-2.76C502.002,124.755,506.528,126.024,510.576,128.563z
		 M504.946,172.224c2.722-1.767,4.838-4.176,6.348-7.231c1.507-3.053,2.262-6.494,2.262-10.321c0-3.826-0.755-7.267-2.262-10.321
		c-1.51-3.054-3.626-5.465-6.348-7.231c-2.724-1.766-5.778-2.649-9.163-2.649c-3.46,0-6.551,0.866-9.273,2.595
		c-2.723,1.729-4.839,4.139-6.347,7.23c-1.509,3.091-2.263,6.551-2.263,10.377c0,3.827,0.754,7.286,2.263,10.377
		c1.508,3.091,3.624,5.502,6.347,7.23c2.722,1.73,5.813,2.595,9.273,2.595C499.168,174.873,502.222,173.989,504.946,172.224z"/>
	<path clip-path="url(#SVGID_2_)" fill="#ED4887" d="M588.293,155.83c-1.033,0.921-2.246,1.38-3.644,1.38h-38.858
		c0.514,5.373,2.556,9.679,6.127,12.916c3.569,3.239,7.929,4.857,13.082,4.857c3.532,0,6.402-0.515,8.61-1.546
		c2.208-1.029,4.157-2.354,5.851-3.974c1.104-0.663,2.17-0.995,3.201-0.995c1.251,0,2.3,0.442,3.146,1.326
		c0.846,0.883,1.27,1.914,1.27,3.092c0,1.545-0.737,2.943-2.208,4.194c-2.135,2.135-4.968,3.938-8.5,5.409
		c-3.532,1.471-7.14,2.207-10.819,2.207c-5.96,0-11.205-1.25-15.729-3.753c-4.526-2.501-8.023-5.997-10.487-10.487
		c-2.467-4.488-3.699-9.566-3.699-15.234c0-6.182,1.27-11.608,3.809-16.282c2.539-4.673,5.887-8.261,10.045-10.764
		c4.157-2.501,8.628-3.753,13.413-3.753c4.709,0,9.125,1.213,13.247,3.643c4.121,2.429,7.433,5.777,9.936,10.046
		c2.501,4.269,3.789,9.052,3.863,14.351C589.874,153.788,589.322,154.911,588.293,155.83 M552.194,137.615
		c-3.019,2.318-5.006,5.906-5.961,10.764h32.564v-0.884c-0.368-3.899-2.115-7.101-5.242-9.604c-3.131-2.501-6.68-3.755-10.653-3.755
		C558.78,134.137,555.211,135.297,552.194,137.615"/>
	<path clip-path="url(#SVGID_2_)" fill="none" stroke="#ED4887" stroke-width="2" stroke-miterlimit="10" d="M588.293,155.83
		c-1.033,0.921-2.246,1.38-3.644,1.38h-38.858c0.514,5.373,2.556,9.679,6.127,12.916c3.569,3.239,7.929,4.857,13.082,4.857
		c3.532,0,6.402-0.515,8.61-1.546c2.208-1.029,4.157-2.354,5.851-3.974c1.104-0.663,2.17-0.995,3.201-0.995
		c1.251,0,2.3,0.442,3.146,1.326c0.846,0.883,1.27,1.914,1.27,3.092c0,1.545-0.737,2.943-2.208,4.194
		c-2.135,2.135-4.968,3.938-8.5,5.409c-3.532,1.471-7.14,2.207-10.819,2.207c-5.96,0-11.205-1.25-15.729-3.753
		c-4.526-2.501-8.023-5.997-10.487-10.487c-2.467-4.488-3.699-9.566-3.699-15.234c0-6.182,1.27-11.608,3.809-16.282
		c2.539-4.673,5.887-8.261,10.045-10.764c4.157-2.501,8.628-3.753,13.413-3.753c4.709,0,9.125,1.213,13.247,3.643
		c4.121,2.429,7.433,5.777,9.936,10.046c2.501,4.269,3.789,9.052,3.863,14.351C589.874,153.788,589.322,154.911,588.293,155.83z
		 M552.194,137.615c-3.019,2.318-5.006,5.906-5.961,10.764h32.564v-0.884c-0.368-3.899-2.115-7.101-5.242-9.604
		c-3.131-2.501-6.68-3.755-10.653-3.755C558.78,134.137,555.211,135.297,552.194,137.615z"/>
	<path clip-path="url(#SVGID_2_)" fill="#ED4887" d="M621.188,136.015v32.896c0,3.683,1.656,5.521,4.968,5.521
		c0.514,0,1.214-0.128,2.098-0.387c0.883-0.258,1.58-0.387,2.097-0.387c0.956,0,1.767,0.405,2.429,1.215
		c0.663,0.811,0.994,1.84,0.994,3.091c0,1.545-0.884,2.87-2.649,3.974c-1.767,1.104-3.754,1.656-5.962,1.656
		c-2.429,0-4.655-0.257-6.679-0.772c-2.024-0.515-3.827-1.821-5.409-3.919c-1.583-2.098-2.373-5.28-2.373-9.549v-33.339h-6.402
		c-1.399,0-2.559-0.459-3.478-1.38c-0.922-0.919-1.38-2.078-1.38-3.478c0-1.397,0.458-2.539,1.38-3.422
		c0.919-0.884,2.078-1.325,3.478-1.325h6.402v-9.272c0-1.472,0.497-2.722,1.49-3.754c0.993-1.029,2.263-1.545,3.809-1.545
		c1.472,0,2.704,0.516,3.698,1.545c0.993,1.032,1.49,2.282,1.49,3.754v9.272h9.162c1.397,0,2.557,0.461,3.478,1.38
		c0.92,0.922,1.38,2.079,1.38,3.478c0,1.399-0.46,2.539-1.38,3.422c-0.921,0.884-2.08,1.325-3.478,1.325H621.188z"/>
	<path clip-path="url(#SVGID_2_)" fill="none" stroke="#ED4887" stroke-width="2" stroke-miterlimit="10" d="M621.188,136.015
		v32.896c0,3.683,1.656,5.521,4.968,5.521c0.514,0,1.214-0.128,2.098-0.387c0.883-0.258,1.58-0.387,2.097-0.387
		c0.956,0,1.767,0.405,2.429,1.215c0.663,0.811,0.994,1.84,0.994,3.091c0,1.545-0.884,2.87-2.649,3.974
		c-1.767,1.104-3.754,1.656-5.962,1.656c-2.429,0-4.655-0.257-6.679-0.772c-2.024-0.515-3.827-1.821-5.409-3.919
		c-1.583-2.098-2.373-5.28-2.373-9.549v-33.339h-6.402c-1.399,0-2.559-0.459-3.478-1.38c-0.922-0.919-1.38-2.078-1.38-3.478
		c0-1.397,0.458-2.539,1.38-3.422c0.919-0.884,2.078-1.325,3.478-1.325h6.402v-9.272c0-1.472,0.497-2.722,1.49-3.754
		c0.993-1.029,2.263-1.545,3.809-1.545c1.472,0,2.704,0.516,3.698,1.545c0.993,1.032,1.49,2.282,1.49,3.754v9.272h9.162
		c1.397,0,2.557,0.461,3.478,1.38c0.92,0.922,1.38,2.079,1.38,3.478c0,1.399-0.46,2.539-1.38,3.422
		c-0.921,0.884-2.08,1.325-3.478,1.325H621.188z"/>
	<path clip-path="url(#SVGID_2_)" fill="#ED4887" d="M697.745,126.741c0.994,1.032,1.49,2.282,1.49,3.754v47.689
		c0,9.199-2.539,16.079-7.617,20.644c-5.078,4.563-11.775,6.844-20.091,6.844c-2.724,0-5.409-0.259-8.059-0.772
		c-2.649-0.516-4.821-1.214-6.514-2.098c-2.724-1.252-4.084-2.944-4.084-5.078c0-0.369,0.072-0.847,0.221-1.435
		c0.441-1.253,1.065-2.208,1.877-2.87c0.809-0.663,1.728-0.994,2.76-0.994c0.588,0,1.14,0.11,1.655,0.331
		c2.28,1.03,4.306,1.84,6.071,2.429c1.767,0.589,3.826,0.884,6.183,0.884c11.406,0,17.11-5.851,17.11-17.553v-2.208
		c-1.986,2.649-4.545,4.711-7.672,6.183c-3.129,1.471-6.717,2.207-10.764,2.207c-6.109,0-10.873-1.948-14.297-5.851
		c-3.421-3.899-5.132-9.014-5.132-15.345v-33.007c0-1.546,0.478-2.815,1.436-3.809c0.955-0.993,2.207-1.49,3.753-1.49
		s2.815,0.516,3.809,1.545c0.993,1.032,1.49,2.282,1.49,3.754v30.247c0,4.857,1.066,8.445,3.201,10.764
		c2.134,2.318,5.371,3.478,9.715,3.478c4.194,0,7.653-1.325,10.377-3.975c2.722-2.649,4.084-6.071,4.084-10.267v-30.247
		c0-1.546,0.479-2.815,1.436-3.809c0.955-0.993,2.207-1.49,3.753-1.49S696.752,125.712,697.745,126.741"/>
	<path clip-path="url(#SVGID_2_)" fill="none" stroke="#ED4887" stroke-width="2" stroke-miterlimit="10" d="M697.745,126.741
		c0.994,1.032,1.49,2.282,1.49,3.754v47.689c0,9.199-2.539,16.079-7.617,20.644c-5.078,4.563-11.775,6.844-20.091,6.844
		c-2.724,0-5.409-0.259-8.059-0.772c-2.649-0.516-4.821-1.214-6.514-2.098c-2.724-1.252-4.084-2.944-4.084-5.078
		c0-0.369,0.072-0.847,0.221-1.435c0.441-1.253,1.065-2.208,1.877-2.87c0.809-0.663,1.728-0.994,2.76-0.994
		c0.588,0,1.14,0.11,1.655,0.331c2.28,1.03,4.306,1.84,6.071,2.429c1.767,0.589,3.826,0.884,6.183,0.884
		c11.406,0,17.11-5.851,17.11-17.553v-2.208c-1.986,2.649-4.545,4.711-7.672,6.183c-3.129,1.471-6.717,2.207-10.764,2.207
		c-6.109,0-10.873-1.948-14.297-5.851c-3.421-3.899-5.132-9.014-5.132-15.345v-33.007c0-1.546,0.478-2.815,1.436-3.809
		c0.955-0.993,2.207-1.49,3.753-1.49s2.815,0.516,3.809,1.545c0.993,1.032,1.49,2.282,1.49,3.754v30.247
		c0,4.857,1.066,8.445,3.201,10.764c2.134,2.318,5.371,3.478,9.715,3.478c4.194,0,7.653-1.325,10.377-3.975
		c2.722-2.649,4.084-6.071,4.084-10.267v-30.247c0-1.546,0.479-2.815,1.436-3.809c0.955-0.993,2.207-1.49,3.753-1.49
		S696.752,125.712,697.745,126.741z"/>
	<path clip-path="url(#SVGID_2_)" fill="#ED4887" d="M757.358,127.184c3.863,1.84,5.795,4.194,5.795,7.064
		c0,1.253-0.405,2.374-1.214,3.367c-0.811,0.993-1.841,1.49-3.091,1.49c-0.958,0-1.712-0.146-2.264-0.441
		c-0.552-0.292-1.308-0.772-2.263-1.436c-0.441-0.441-1.142-0.955-2.098-1.545c-0.883-0.441-2.137-0.81-3.753-1.104
		c-1.62-0.293-3.093-0.442-4.416-0.442c-3.827,0-7.214,0.884-10.156,2.649c-2.944,1.767-5.228,4.214-6.844,7.342
		c-1.62,3.129-2.429,6.605-2.429,10.432c0,3.901,0.79,7.396,2.373,10.487c1.582,3.091,3.809,5.52,6.679,7.286
		c2.87,1.766,6.145,2.649,9.825,2.649c3.825,0,6.918-0.589,9.272-1.767c0.515-0.293,1.215-0.772,2.098-1.435
		c0.735-0.589,1.38-1.03,1.932-1.325c0.553-0.293,1.231-0.441,2.043-0.441c1.471,0,2.63,0.46,3.477,1.38
		c0.845,0.921,1.27,2.116,1.27,3.588c0,1.545-0.976,3.073-2.925,4.581c-1.951,1.509-4.564,2.742-7.838,3.698
		c-3.275,0.955-6.789,1.435-10.543,1.435c-5.594,0-10.525-1.306-14.792-3.919c-4.27-2.611-7.563-6.218-9.881-10.818
		c-2.317-4.599-3.477-9.731-3.477-15.399c0-5.666,1.214-10.8,3.643-15.398c2.429-4.6,5.813-8.207,10.156-10.819
		c4.342-2.612,9.309-3.919,14.903-3.919C748.654,124.424,753.494,125.345,757.358,127.184"/>
	<path clip-path="url(#SVGID_2_)" fill="none" stroke="#ED4887" stroke-width="2" stroke-miterlimit="10" d="M757.358,127.184
		c3.863,1.84,5.795,4.194,5.795,7.064c0,1.253-0.405,2.374-1.214,3.367c-0.811,0.993-1.841,1.49-3.091,1.49
		c-0.958,0-1.712-0.146-2.264-0.441c-0.552-0.292-1.308-0.772-2.263-1.436c-0.441-0.441-1.142-0.955-2.098-1.545
		c-0.883-0.441-2.137-0.81-3.753-1.104c-1.62-0.293-3.093-0.442-4.416-0.442c-3.827,0-7.214,0.884-10.156,2.649
		c-2.944,1.767-5.228,4.214-6.844,7.342c-1.62,3.129-2.429,6.605-2.429,10.432c0,3.901,0.79,7.396,2.373,10.487
		c1.582,3.091,3.809,5.52,6.679,7.286c2.87,1.766,6.145,2.649,9.825,2.649c3.825,0,6.918-0.589,9.272-1.767
		c0.515-0.293,1.215-0.772,2.098-1.435c0.735-0.589,1.38-1.03,1.932-1.325c0.553-0.293,1.231-0.441,2.043-0.441
		c1.471,0,2.63,0.46,3.477,1.38c0.845,0.921,1.27,2.116,1.27,3.588c0,1.545-0.976,3.073-2.925,4.581
		c-1.951,1.509-4.564,2.742-7.838,3.698c-3.275,0.955-6.789,1.435-10.543,1.435c-5.594,0-10.525-1.306-14.792-3.919
		c-4.27-2.611-7.563-6.218-9.881-10.818c-2.317-4.599-3.477-9.731-3.477-15.399c0-5.666,1.214-10.8,3.643-15.398
		c2.429-4.6,5.813-8.207,10.156-10.819c4.342-2.612,9.309-3.919,14.903-3.919C748.654,124.424,753.494,125.345,757.358,127.184z"/>
	<path clip-path="url(#SVGID_2_)" fill="#ED4887" d="M769.169,203.906c-0.919-0.958-1.38-2.098-1.38-3.423v-0.993
		c0-2.428,1.51-4.012,4.526-4.747c4.709-1.324,7.065-5.006,7.065-11.039v-52.657c0-1.472,0.496-2.722,1.49-3.753
		c0.993-1.03,2.262-1.546,3.809-1.546c1.471,0,2.703,0.516,3.697,1.546c0.994,1.031,1.491,2.281,1.491,3.753v55.307
		c0,3.826-0.792,7.176-2.374,10.046c-1.583,2.87-3.698,5.079-6.348,6.623c-2.649,1.546-5.483,2.318-8.5,2.318
		C771.248,205.341,770.089,204.861,769.169,203.906 M779.987,116.751c-0.921-0.771-1.38-2.004-1.38-3.698v-1.766
		c0-1.766,0.497-3.018,1.49-3.754c0.993-0.734,2.521-1.104,4.582-1.104c2.06,0,3.55,0.386,4.471,1.159
		c0.919,0.772,1.38,2.006,1.38,3.698v1.766c0,1.767-0.479,3.019-1.436,3.754c-0.957,0.736-2.467,1.104-4.525,1.104
		C782.434,117.91,780.907,117.523,779.987,116.751"/>
	<path clip-path="url(#SVGID_2_)" fill="none" stroke="#ED4887" stroke-width="2" stroke-miterlimit="10" d="M769.169,203.906
		c-0.919-0.958-1.38-2.098-1.38-3.423v-0.993c0-2.428,1.51-4.012,4.526-4.747c4.709-1.324,7.065-5.006,7.065-11.039v-52.657
		c0-1.472,0.496-2.722,1.49-3.753c0.993-1.03,2.262-1.546,3.809-1.546c1.471,0,2.703,0.516,3.697,1.546
		c0.994,1.031,1.491,2.281,1.491,3.753v55.307c0,3.826-0.792,7.176-2.374,10.046c-1.583,2.87-3.698,5.079-6.348,6.623
		c-2.649,1.546-5.483,2.318-8.5,2.318C771.248,205.341,770.089,204.861,769.169,203.906z M779.987,116.751
		c-0.921-0.771-1.38-2.004-1.38-3.698v-1.766c0-1.766,0.497-3.018,1.49-3.754c0.993-0.734,2.521-1.104,4.582-1.104
		c2.06,0,3.55,0.386,4.471,1.159c0.919,0.772,1.38,2.006,1.38,3.698v1.766c0,1.767-0.479,3.019-1.436,3.754
		c-0.957,0.736-2.467,1.104-4.525,1.104C782.434,117.91,780.907,117.523,779.987,116.751z"/>
	<path clip-path="url(#SVGID_2_)" fill="#ED4887" d="M859.193,155.83c-1.032,0.921-2.246,1.38-3.644,1.38h-38.858
		c0.515,5.373,2.557,9.679,6.127,12.916c3.569,3.239,7.93,4.857,13.082,4.857c3.532,0,6.402-0.515,8.61-1.546
		c2.208-1.029,4.157-2.354,5.851-3.974c1.104-0.663,2.17-0.995,3.201-0.995c1.251,0,2.3,0.442,3.146,1.326
		c0.846,0.883,1.27,1.914,1.27,3.092c0,1.545-0.736,2.943-2.208,4.194c-2.135,2.135-4.968,3.938-8.5,5.409
		c-3.532,1.471-7.14,2.207-10.818,2.207c-5.962,0-11.205-1.25-15.73-3.753c-4.526-2.501-8.023-5.997-10.487-10.487
		c-2.467-4.488-3.698-9.566-3.698-15.234c0-6.182,1.27-11.608,3.809-16.282c2.539-4.673,5.887-8.261,10.045-10.764
		c4.157-2.501,8.628-3.753,13.413-3.753c4.709,0,9.125,1.213,13.247,3.643c4.121,2.429,7.433,5.777,9.936,10.046
		c2.501,4.269,3.789,9.052,3.863,14.351C860.774,153.788,860.223,154.911,859.193,155.83 M823.095,137.615
		c-3.019,2.318-5.006,5.906-5.961,10.764h32.564v-0.884c-0.368-3.899-2.115-7.101-5.242-9.604c-3.13-2.501-6.68-3.755-10.653-3.755
		C829.681,134.137,826.111,135.297,823.095,137.615"/>
	<path clip-path="url(#SVGID_2_)" fill="none" stroke="#ED4887" stroke-width="2" stroke-miterlimit="10" d="M859.193,155.83
		c-1.032,0.921-2.246,1.38-3.644,1.38h-38.858c0.515,5.373,2.557,9.679,6.127,12.916c3.569,3.239,7.93,4.857,13.082,4.857
		c3.532,0,6.402-0.515,8.61-1.546c2.208-1.029,4.157-2.354,5.851-3.974c1.104-0.663,2.17-0.995,3.201-0.995
		c1.251,0,2.3,0.442,3.146,1.326c0.846,0.883,1.27,1.914,1.27,3.092c0,1.545-0.736,2.943-2.208,4.194
		c-2.135,2.135-4.968,3.938-8.5,5.409c-3.532,1.471-7.14,2.207-10.818,2.207c-5.962,0-11.205-1.25-15.73-3.753
		c-4.526-2.501-8.023-5.997-10.487-10.487c-2.467-4.488-3.698-9.566-3.698-15.234c0-6.182,1.27-11.608,3.809-16.282
		c2.539-4.673,5.887-8.261,10.045-10.764c4.157-2.501,8.628-3.753,13.413-3.753c4.709,0,9.125,1.213,13.247,3.643
		c4.121,2.429,7.433,5.777,9.936,10.046c2.501,4.269,3.789,9.052,3.863,14.351C860.774,153.788,860.223,154.911,859.193,155.83z
		 M823.095,137.615c-3.019,2.318-5.006,5.906-5.961,10.764h32.564v-0.884c-0.368-3.899-2.115-7.101-5.242-9.604
		c-3.13-2.501-6.68-3.755-10.653-3.755C829.681,134.137,826.111,135.297,823.095,137.615z"/>
	<path clip-path="url(#SVGID_2_)" fill="#ED4887" d="M931.161,175.314c0.955,0.957,1.435,2.136,1.435,3.532
		c0,1.399-0.479,2.539-1.435,3.422c-0.957,0.884-2.136,1.325-3.532,1.325h-39.189c-1.474,0-2.688-0.459-3.644-1.38
		c-0.957-0.919-1.435-2.152-1.435-3.698c0-1.324,0.514-2.575,1.545-3.753l24.618-26.715c6.844-7.286,10.267-13.726,10.267-19.319
		c0-3.974-1.308-7.267-3.919-9.88c-2.613-2.611-5.944-3.919-9.991-3.919c-2.724,0-5.337,0.772-7.838,2.318
		c-2.503,1.546-4.526,3.754-6.071,6.623c-1.178,1.547-2.577,2.318-4.195,2.318c-1.252,0-2.429-0.478-3.532-1.435
		c-1.104-0.956-1.655-2.06-1.655-3.313c0-0.809,0.275-1.655,0.827-2.539c0.553-0.883,1.342-1.912,2.374-3.091
		c2.429-3.237,5.519-5.812,9.272-7.727c3.754-1.913,7.543-2.871,11.37-2.871c4.931,0,9.199,0.995,12.806,2.98
		c3.605,1.987,6.384,4.711,8.335,8.17c1.949,3.46,2.926,7.434,2.926,11.922c0,8.465-4.565,17.591-13.69,27.377l-16.669,18.215
		h27.489C929.025,173.879,930.204,174.358,931.161,175.314"/>
	<path clip-path="url(#SVGID_2_)" fill="none" stroke="#ED4887" stroke-width="2" stroke-miterlimit="10" d="M931.161,175.314
		c0.955,0.957,1.435,2.136,1.435,3.532c0,1.399-0.479,2.539-1.435,3.422c-0.957,0.884-2.136,1.325-3.532,1.325h-39.189
		c-1.474,0-2.688-0.459-3.644-1.38c-0.957-0.919-1.435-2.152-1.435-3.698c0-1.324,0.514-2.575,1.545-3.753l24.618-26.715
		c6.844-7.286,10.267-13.726,10.267-19.319c0-3.974-1.308-7.267-3.919-9.88c-2.613-2.611-5.944-3.919-9.991-3.919
		c-2.724,0-5.337,0.772-7.838,2.318c-2.503,1.546-4.526,3.754-6.071,6.623c-1.178,1.547-2.577,2.318-4.195,2.318
		c-1.252,0-2.429-0.478-3.532-1.435c-1.104-0.956-1.655-2.06-1.655-3.313c0-0.809,0.275-1.655,0.827-2.539
		c0.553-0.883,1.342-1.912,2.374-3.091c2.429-3.237,5.519-5.812,9.272-7.727c3.754-1.913,7.543-2.871,11.37-2.871
		c4.931,0,9.199,0.995,12.806,2.98c3.605,1.987,6.384,4.711,8.335,8.17c1.949,3.46,2.926,7.434,2.926,11.922
		c0,8.465-4.565,17.591-13.69,27.377l-16.669,18.215h27.489C929.025,173.879,930.204,174.358,931.161,175.314z"/>
	<path clip-path="url(#SVGID_2_)" fill="#ED4887" d="M1002.695,153.181c0.955,0.921,1.435,2.08,1.435,3.478
		c0,1.398-0.479,2.539-1.435,3.422c-0.959,0.883-2.136,1.325-3.533,1.325h-5.851v16.89c0,1.473-0.516,2.724-1.545,3.753
		c-1.032,1.032-2.282,1.546-3.754,1.546c-1.473,0-2.704-0.514-3.698-1.546c-0.994-1.029-1.49-2.28-1.49-3.753v-16.89h-30.247
		c-1.325,0-2.522-0.515-3.589-1.546c-1.066-1.029-1.6-2.244-1.6-3.643c0-1.325,0.403-2.501,1.214-3.533l35.216-44.267
		c0.514-0.663,1.159-1.177,1.932-1.546c0.772-0.367,1.563-0.551,2.373-0.551c1.472,0,2.705,0.515,3.697,1.544
		c0.995,1.032,1.491,2.282,1.491,3.754v40.183h5.851C1000.56,151.801,1001.736,152.262,1002.695,153.181 M961.298,151.801h21.526
		v-27.599L961.298,151.801z"/>
	<path clip-path="url(#SVGID_2_)" fill="none" stroke="#ED4887" stroke-width="2" stroke-miterlimit="10" d="M1002.695,153.181
		c0.955,0.921,1.435,2.08,1.435,3.478c0,1.398-0.479,2.539-1.435,3.422c-0.959,0.883-2.136,1.325-3.533,1.325h-5.851v16.89
		c0,1.473-0.516,2.724-1.545,3.753c-1.032,1.032-2.282,1.546-3.754,1.546c-1.473,0-2.704-0.514-3.698-1.546
		c-0.994-1.029-1.49-2.28-1.49-3.753v-16.89h-30.247c-1.325,0-2.522-0.515-3.589-1.546c-1.066-1.029-1.6-2.244-1.6-3.643
		c0-1.325,0.403-2.501,1.214-3.533l35.216-44.267c0.514-0.663,1.159-1.177,1.932-1.546c0.772-0.367,1.563-0.551,2.373-0.551
		c1.472,0,2.705,0.515,3.697,1.544c0.995,1.032,1.491,2.282,1.491,3.754v40.183h5.851
		C1000.56,151.801,1001.736,152.262,1002.695,153.181z M961.298,151.801h21.526v-27.599L961.298,151.801z"/>
	<path clip-path="url(#SVGID_2_)" fill="none" stroke="#000000" stroke-width="8" stroke-miterlimit="10" d="M91.085,151.699
		l83.793,67.998c3.826,3.028,9.434,2.376,12.462-1.45l4.158-5.254c3.028-3.826,2.375-9.435-1.451-12.462l-95.502-74.683"/>
	<path clip-path="url(#SVGID_2_)" fill="none" stroke="#000000" stroke-width="8" stroke-miterlimit="10" d="M94.948,100.85
		l94.558-66.136c3.939-2.75,4.943-8.269,2.231-12.264l-3.724-5.486c-2.712-3.994-8.153-5.012-12.093-2.262L91.283,75.109"/>
	<path clip-path="url(#SVGID_2_)" fill="none" stroke="#000000" stroke-width="8" stroke-miterlimit="10" d="M90.954,100.897
		l15.965-0.046c3.012-0.008,5.484,2.449,5.492,5.461l0.039,13.605c0.009,3.011-2.448,5.483-5.46,5.491l-16.295,0.047"/>
	<path clip-path="url(#SVGID_2_)" fill="none" stroke="#000000" stroke-width="8" stroke-miterlimit="10" d="M54.045,121.877
		c-2.377,2.636-5.815,4.296-9.643,4.307c-7.197,0.021-13.048-5.797-13.069-12.994c-0.02-7.196,5.797-13.048,12.994-13.067
		c3.988-0.013,7.562,1.769,9.961,4.584"/>
	<path clip-path="url(#SVGID_2_)" fill="none" stroke="#000000" stroke-width="8" stroke-miterlimit="10" d="M6.683,108.329
		l0.028,9.698c0.006,2.146,1.767,3.897,3.914,3.892l16.649-0.047c2.147-0.007,3.898-1.769,3.892-3.915l-0.028-9.698
		c-0.006-2.146-1.767-3.897-3.914-3.892l-16.649,0.047C8.428,104.42,6.677,106.182,6.683,108.329z"/>
	<path clip-path="url(#SVGID_2_)" fill="none" stroke="#000000" stroke-width="8" stroke-miterlimit="10" d="M204.176,228.55
		l0.499-0.665c0.836-1.114,0.608-2.709-0.506-3.545l-10.228-7.675c-1.114-0.836-2.71-0.609-3.546,0.505l-0.498,0.665
		c-0.836,1.114-0.609,2.71,0.505,3.546l10.229,7.675C201.745,229.892,203.34,229.664,204.176,228.55z"/>
	<path clip-path="url(#SVGID_2_)" fill="none" stroke="#000000" stroke-width="8" stroke-miterlimit="10" d="M205.837,8.838
		l-0.974-1.425c-0.646-0.945-1.94-1.18-2.876-0.522l-11.021,7.746c-0.913,0.641-1.144,1.918-0.515,2.839l0.974,1.425
		c0.645,0.945,1.94,1.18,2.876,0.522l11.021-7.746C206.234,11.036,206.466,9.758,205.837,8.838z"/>
	<path clip-path="url(#SVGID_2_)" fill="none" stroke="#000000" stroke-width="8" stroke-miterlimit="10" d="M128.604,79.576
		c17.427,21.058,17.159,52.79-3.459,69.85"/>
	
		<rect x="54.561" y="6.467" transform="matrix(-1 -3.844817e-004 3.844817e-004 -1 145.9126 236.196)" clip-path="url(#SVGID_2_)" fill="none" stroke="#ED4887" stroke-width="8" stroke-miterlimit="10" width="36.837" height="223.234"/>
	<line clip-path="url(#SVGID_2_)" fill="#FFFFFF" x1="56.345" y1="20.057" x2="71.282" y2="20.063"/>
	
		<line clip-path="url(#SVGID_2_)" fill="none" stroke="#ED4887" stroke-width="5" stroke-miterlimit="10" x1="56.345" y1="20.057" x2="71.282" y2="20.063"/>
	<line clip-path="url(#SVGID_2_)" fill="#FFFFFF" x1="56.34" y1="31.389" x2="71.277" y2="31.395"/>
	
		<line clip-path="url(#SVGID_2_)" fill="none" stroke="#ED4887" stroke-width="5" stroke-miterlimit="10" x1="56.34" y1="31.389" x2="71.277" y2="31.395"/>
	<line clip-path="url(#SVGID_2_)" fill="#FFFFFF" x1="56.336" y1="43.235" x2="71.272" y2="43.241"/>
	
		<line clip-path="url(#SVGID_2_)" fill="none" stroke="#ED4887" stroke-width="5" stroke-miterlimit="10" x1="56.336" y1="43.235" x2="71.272" y2="43.241"/>
	<line clip-path="url(#SVGID_2_)" fill="#FFFFFF" x1="56.331" y1="55.082" x2="71.268" y2="55.088"/>
	
		<line clip-path="url(#SVGID_2_)" fill="none" stroke="#ED4887" stroke-width="5" stroke-miterlimit="10" x1="56.331" y1="55.082" x2="71.268" y2="55.088"/>
	<line clip-path="url(#SVGID_2_)" fill="#FFFFFF" x1="56.326" y1="67.443" x2="71.263" y2="67.45"/>
	
		<line clip-path="url(#SVGID_2_)" fill="none" stroke="#ED4887" stroke-width="5" stroke-miterlimit="10" x1="56.326" y1="67.443" x2="71.263" y2="67.45"/>
	<line clip-path="url(#SVGID_2_)" fill="#FFFFFF" x1="56.322" y1="77.745" x2="71.259" y2="77.751"/>
	
		<line clip-path="url(#SVGID_2_)" fill="none" stroke="#ED4887" stroke-width="5" stroke-miterlimit="10" x1="56.322" y1="77.745" x2="71.259" y2="77.751"/>
	<line clip-path="url(#SVGID_2_)" fill="#FFFFFF" x1="56.317" y1="90.622" x2="71.254" y2="90.628"/>
	
		<line clip-path="url(#SVGID_2_)" fill="none" stroke="#ED4887" stroke-width="5" stroke-miterlimit="10" x1="56.317" y1="90.622" x2="71.254" y2="90.628"/>
	<line clip-path="url(#SVGID_2_)" fill="#FFFFFF" x1="56.313" y1="101.953" x2="71.25" y2="101.959"/>
	
		<line clip-path="url(#SVGID_2_)" fill="none" stroke="#ED4887" stroke-width="5" stroke-miterlimit="10" x1="56.313" y1="101.953" x2="71.25" y2="101.959"/>
	<line clip-path="url(#SVGID_2_)" fill="#FFFFFF" x1="56.308" y1="113.8" x2="71.245" y2="113.806"/>
	
		<line clip-path="url(#SVGID_2_)" fill="none" stroke="#ED4887" stroke-width="5" stroke-miterlimit="10" x1="56.308" y1="113.8" x2="71.245" y2="113.806"/>
	<line clip-path="url(#SVGID_2_)" fill="#FFFFFF" x1="56.304" y1="125.646" x2="71.241" y2="125.652"/>
	
		<line clip-path="url(#SVGID_2_)" fill="none" stroke="#ED4887" stroke-width="5" stroke-miterlimit="10" x1="56.304" y1="125.646" x2="71.241" y2="125.652"/>
	<line clip-path="url(#SVGID_2_)" fill="#FFFFFF" x1="56.299" y1="137.493" x2="71.236" y2="137.499"/>
	
		<line clip-path="url(#SVGID_2_)" fill="none" stroke="#ED4887" stroke-width="5" stroke-miterlimit="10" x1="56.299" y1="137.493" x2="71.236" y2="137.499"/>
	<line clip-path="url(#SVGID_2_)" fill="#FFFFFF" x1="56.295" y1="148.31" x2="71.232" y2="148.315"/>
	
		<line clip-path="url(#SVGID_2_)" fill="none" stroke="#ED4887" stroke-width="5" stroke-miterlimit="10" x1="56.295" y1="148.31" x2="71.232" y2="148.315"/>
	<line clip-path="url(#SVGID_2_)" fill="#FFFFFF" x1="56.29" y1="160.672" x2="71.227" y2="160.678"/>
	
		<line clip-path="url(#SVGID_2_)" fill="none" stroke="#ED4887" stroke-width="5" stroke-miterlimit="10" x1="56.29" y1="160.672" x2="71.227" y2="160.678"/>
	<line clip-path="url(#SVGID_2_)" fill="#FFFFFF" x1="56.286" y1="172.003" x2="71.223" y2="172.009"/>
	
		<line clip-path="url(#SVGID_2_)" fill="none" stroke="#ED4887" stroke-width="5" stroke-miterlimit="10" x1="56.286" y1="172.003" x2="71.223" y2="172.009"/>
	<line clip-path="url(#SVGID_2_)" fill="#FFFFFF" x1="56.281" y1="184.88" x2="71.218" y2="184.886"/>
	
		<line clip-path="url(#SVGID_2_)" fill="none" stroke="#ED4887" stroke-width="5" stroke-miterlimit="10" x1="56.281" y1="184.88" x2="71.218" y2="184.886"/>
	<line clip-path="url(#SVGID_2_)" fill="#FFFFFF" x1="56.277" y1="195.182" x2="71.214" y2="195.188"/>
	
		<line clip-path="url(#SVGID_2_)" fill="none" stroke="#ED4887" stroke-width="5" stroke-miterlimit="10" x1="56.277" y1="195.182" x2="71.214" y2="195.188"/>
	<line clip-path="url(#SVGID_2_)" fill="#FFFFFF" x1="56.272" y1="207.543" x2="71.209" y2="207.549"/>
	
		<line clip-path="url(#SVGID_2_)" fill="none" stroke="#ED4887" stroke-width="5" stroke-miterlimit="10" x1="56.272" y1="207.543" x2="71.209" y2="207.549"/>
	<line clip-path="url(#SVGID_2_)" fill="#FFFFFF" x1="56.267" y1="219.39" x2="71.204" y2="219.396"/>
	
		<line clip-path="url(#SVGID_2_)" fill="none" stroke="#ED4887" stroke-width="5" stroke-miterlimit="10" x1="56.267" y1="219.39" x2="71.204" y2="219.396"/>
</g>
</svg>
