<?xml version="1.0" encoding="utf-8"?>
<!-- Generator: Adobe Illustrator 16.0.0, SVG Export Plug-In . SVG Version: 6.00 Build 0)  -->
<!DOCTYPE svg PUBLIC "-//W3C//DTD SVG 1.1//EN" "http://www.w3.org/Graphics/SVG/1.1/DTD/svg11.dtd">
<svg version="1.1" id="Layer_1" xmlns="http://www.w3.org/2000/svg" xmlns:xlink="http://www.w3.org/1999/xlink" x="0px" y="0px"
	 width="1290px" height="810px" viewBox="0 0 1290 810" enable-background="new 0 0 1290 810" xml:space="preserve">
<g>
	<defs>
		<rect id="SVGID_1_" width="1290" height="810"/>
	</defs>
	<clipPath id="SVGID_2_">
		<use xlink:href="#SVGID_1_"  overflow="visible"/>
	</clipPath>
	<path clip-path="url(#SVGID_2_)" fill="none" stroke="#000000" stroke-width="8" stroke-miterlimit="10" d="M256.253,388.208
		l161.396,130.973c7.369,5.833,18.17,4.575,24.003-2.794l8.009-10.119c5.832-7.37,4.575-18.171-2.795-24.004L262.917,338.417"/>
	<path clip-path="url(#SVGID_2_)" fill="none" stroke="#000000" stroke-width="8" stroke-miterlimit="10" d="M263.692,290.267
		L445.823,162.88c7.587-5.298,9.521-15.928,4.297-23.622l-7.173-10.566c-5.223-7.694-15.705-9.655-23.292-4.358L256.633,240.687"/>
	<path clip-path="url(#SVGID_2_)" fill="none" stroke="#000000" stroke-width="8" stroke-miterlimit="10" d="M256,290.359
		l30.751-0.088c5.802-0.016,10.562,4.716,10.578,10.518l0.075,26.204c0.017,5.801-4.716,10.561-10.517,10.578l-31.386,0.089"/>
	<path clip-path="url(#SVGID_2_)" fill="none" stroke="#000000" stroke-width="8" stroke-miterlimit="10" d="M184.909,330.767
		c-4.578,5.077-11.2,8.275-18.574,8.296c-13.862,0.04-25.132-11.165-25.172-25.028c-0.039-13.862,11.166-25.132,25.028-25.171
		c7.681-0.022,14.566,3.408,19.185,8.829"/>
	<path clip-path="url(#SVGID_2_)" fill="none" stroke="#000000" stroke-width="8" stroke-miterlimit="10" d="M93.683,304.672
		l0.053,18.679c0.012,4.135,3.405,7.509,7.54,7.497l32.068-0.091c4.135-0.012,7.508-3.405,7.497-7.54l-0.054-18.68
		c-0.012-4.135-3.405-7.509-7.54-7.497l-32.067,0.092C97.045,297.144,93.671,300.537,93.683,304.672z"/>
	<path clip-path="url(#SVGID_2_)" fill="none" stroke="#000000" stroke-width="8" stroke-miterlimit="10" d="M472.672,538.107
		l3.776-5.031c0.836-1.114,0.608-2.709-0.506-3.545l-23.453-17.6c-1.114-0.836-2.709-0.607-3.545,0.506l-3.776,5.032
		c-0.836,1.114-0.608,2.709,0.506,3.545l23.453,17.6C470.241,539.45,471.836,539.222,472.672,538.107z"/>
	<path clip-path="url(#SVGID_2_)" fill="none" stroke="#000000" stroke-width="8" stroke-miterlimit="10" d="M477.278,113.041
		l-1.876-2.745c-1.243-1.82-3.737-2.272-5.54-1.005l-21.228,14.919c-1.757,1.235-2.203,3.696-0.992,5.469l1.876,2.745
		c1.244,1.82,3.737,2.272,5.541,1.004l21.227-14.919C478.043,117.274,478.489,114.813,477.278,113.041z"/>
	<path clip-path="url(#SVGID_2_)" fill="none" stroke="#000000" stroke-width="8" stroke-miterlimit="10" d="M328.517,249.29
		c33.566,40.561,33.05,101.677-6.662,134.54"/>
	
		<rect x="185.902" y="108.474" transform="matrix(-1 -3.990253e-004 3.990253e-004 -1 442.6273 647.0112)" clip-path="url(#SVGID_2_)" fill="none" stroke="#ED4887" stroke-width="8" stroke-miterlimit="10" width="70.953" height="429.975"/>
	<line clip-path="url(#SVGID_2_)" fill="#FFFFFF" x1="189.338" y1="134.649" x2="218.109" y2="134.661"/>
	
		<line clip-path="url(#SVGID_2_)" fill="none" stroke="#ED4887" stroke-width="5" stroke-miterlimit="10" x1="189.338" y1="134.649" x2="218.109" y2="134.661"/>
	<line clip-path="url(#SVGID_2_)" fill="#FFFFFF" x1="189.33" y1="156.476" x2="218.101" y2="156.486"/>
	
		<line clip-path="url(#SVGID_2_)" fill="none" stroke="#ED4887" stroke-width="5" stroke-miterlimit="10" x1="189.33" y1="156.476" x2="218.101" y2="156.486"/>
	<line clip-path="url(#SVGID_2_)" fill="#FFFFFF" x1="189.32" y1="179.293" x2="218.091" y2="179.305"/>
	
		<line clip-path="url(#SVGID_2_)" fill="none" stroke="#ED4887" stroke-width="5" stroke-miterlimit="10" x1="189.32" y1="179.293" x2="218.091" y2="179.305"/>
	<line clip-path="url(#SVGID_2_)" fill="#FFFFFF" x1="189.312" y1="202.111" x2="218.083" y2="202.123"/>
	
		<line clip-path="url(#SVGID_2_)" fill="none" stroke="#ED4887" stroke-width="5" stroke-miterlimit="10" x1="189.312" y1="202.111" x2="218.083" y2="202.123"/>
	<line clip-path="url(#SVGID_2_)" fill="#FFFFFF" x1="189.302" y1="225.922" x2="218.073" y2="225.933"/>
	
		<line clip-path="url(#SVGID_2_)" fill="none" stroke="#ED4887" stroke-width="5" stroke-miterlimit="10" x1="189.302" y1="225.922" x2="218.073" y2="225.933"/>
	<line clip-path="url(#SVGID_2_)" fill="#FFFFFF" x1="189.295" y1="245.764" x2="218.066" y2="245.774"/>
	
		<line clip-path="url(#SVGID_2_)" fill="none" stroke="#ED4887" stroke-width="5" stroke-miterlimit="10" x1="189.295" y1="245.764" x2="218.066" y2="245.774"/>
	<line clip-path="url(#SVGID_2_)" fill="#FFFFFF" x1="189.285" y1="270.566" x2="218.056" y2="270.577"/>
	
		<line clip-path="url(#SVGID_2_)" fill="none" stroke="#ED4887" stroke-width="5" stroke-miterlimit="10" x1="189.285" y1="270.566" x2="218.056" y2="270.577"/>
	<line clip-path="url(#SVGID_2_)" fill="#FFFFFF" x1="189.276" y1="292.392" x2="218.047" y2="292.403"/>
	
		<line clip-path="url(#SVGID_2_)" fill="none" stroke="#ED4887" stroke-width="5" stroke-miterlimit="10" x1="189.276" y1="292.392" x2="218.047" y2="292.403"/>
	<line clip-path="url(#SVGID_2_)" fill="#FFFFFF" x1="189.268" y1="315.21" x2="218.039" y2="315.221"/>
	
		<line clip-path="url(#SVGID_2_)" fill="none" stroke="#ED4887" stroke-width="5" stroke-miterlimit="10" x1="189.268" y1="315.21" x2="218.039" y2="315.221"/>
	<line clip-path="url(#SVGID_2_)" fill="#FFFFFF" x1="189.259" y1="338.028" x2="218.03" y2="338.039"/>
	
		<line clip-path="url(#SVGID_2_)" fill="none" stroke="#ED4887" stroke-width="5" stroke-miterlimit="10" x1="189.259" y1="338.028" x2="218.03" y2="338.039"/>
	<line clip-path="url(#SVGID_2_)" fill="#FFFFFF" x1="189.25" y1="360.846" x2="218.021" y2="360.857"/>
	
		<line clip-path="url(#SVGID_2_)" fill="none" stroke="#ED4887" stroke-width="5" stroke-miterlimit="10" x1="189.25" y1="360.846" x2="218.021" y2="360.857"/>
	<line clip-path="url(#SVGID_2_)" fill="#FFFFFF" x1="189.242" y1="381.68" x2="218.013" y2="381.691"/>
	
		<line clip-path="url(#SVGID_2_)" fill="none" stroke="#ED4887" stroke-width="5" stroke-miterlimit="10" x1="189.242" y1="381.68" x2="218.013" y2="381.691"/>
	<line clip-path="url(#SVGID_2_)" fill="#FFFFFF" x1="189.232" y1="405.49" x2="218.003" y2="405.501"/>
	
		<line clip-path="url(#SVGID_2_)" fill="none" stroke="#ED4887" stroke-width="5" stroke-miterlimit="10" x1="189.232" y1="405.49" x2="218.003" y2="405.501"/>
	<line clip-path="url(#SVGID_2_)" fill="#FFFFFF" x1="189.224" y1="427.316" x2="217.995" y2="427.327"/>
	
		<line clip-path="url(#SVGID_2_)" fill="none" stroke="#ED4887" stroke-width="5" stroke-miterlimit="10" x1="189.224" y1="427.316" x2="217.995" y2="427.327"/>
	<line clip-path="url(#SVGID_2_)" fill="#FFFFFF" x1="189.214" y1="452.118" x2="217.985" y2="452.13"/>
	
		<line clip-path="url(#SVGID_2_)" fill="none" stroke="#ED4887" stroke-width="5" stroke-miterlimit="10" x1="189.214" y1="452.118" x2="217.985" y2="452.13"/>
	<line clip-path="url(#SVGID_2_)" fill="#FFFFFF" x1="189.207" y1="471.96" x2="217.978" y2="471.972"/>
	
		<line clip-path="url(#SVGID_2_)" fill="none" stroke="#ED4887" stroke-width="5" stroke-miterlimit="10" x1="189.207" y1="471.96" x2="217.978" y2="471.972"/>
	<line clip-path="url(#SVGID_2_)" fill="#FFFFFF" x1="189.198" y1="495.771" x2="217.969" y2="495.781"/>
	
		<line clip-path="url(#SVGID_2_)" fill="none" stroke="#ED4887" stroke-width="5" stroke-miterlimit="10" x1="189.198" y1="495.771" x2="217.969" y2="495.781"/>
	<line clip-path="url(#SVGID_2_)" fill="#FFFFFF" x1="189.188" y1="518.589" x2="217.959" y2="518.6"/>
	
		<line clip-path="url(#SVGID_2_)" fill="none" stroke="#ED4887" stroke-width="5" stroke-miterlimit="10" x1="189.188" y1="518.589" x2="217.959" y2="518.6"/>
</g>
</svg>
